<?xml version="1.0" encoding="UTF-8"?>
<svg id="Layer_2" data-name="Layer 2" xmlns="http://www.w3.org/2000/svg" xmlns:xlink="http://www.w3.org/1999/xlink" viewBox="0 0 474 536">
  <defs>
    <style>
      .cls-1 {
        fill: #508eb9;
      }

      .cls-2 {
        fill: url(#linear-gradient-2);
      }

      .cls-3 {
        fill: url(#linear-gradient-3);
      }

      .cls-4 {
        fill: #4d88b5;
      }

      .cls-5 {
        fill: url(#linear-gradient);
      }

      .cls-6 {
        fill: none;
        stroke: url(#linear-gradient-4);
        stroke-miterlimit: 10;
        stroke-width: 16px;
      }
    </style>
    <linearGradient id="linear-gradient" x1="384.49" y1="416.56" x2="82.72" y2="114.79" gradientUnits="userSpaceOnUse">
      <stop offset="0" stop-color="#67a6c2"/>
      <stop offset=".09" stop-color="#5998bb"/>
      <stop offset=".32" stop-color="#3e7cae"/>
      <stop offset=".55" stop-color="#2a68a5"/>
      <stop offset=".77" stop-color="#1e5c9f"/>
      <stop offset="1" stop-color="#1b589e"/>
    </linearGradient>
    <linearGradient id="linear-gradient-2" x1="264.23" y1="456.79" x2="209.24" y2="401.8" gradientUnits="userSpaceOnUse">
      <stop offset=".02" stop-color="#4a84b4"/>
      <stop offset="1" stop-color="#3272ac"/>
    </linearGradient>
    <linearGradient id="linear-gradient-3" x1="301.22" y1="248.22" x2="173.23" y2="120.23" gradientUnits="userSpaceOnUse">
      <stop offset="0" stop-color="#3f7baf"/>
      <stop offset=".53" stop-color="#306faa"/>
      <stop offset="1" stop-color="#2b6ba9"/>
    </linearGradient>
    <linearGradient id="linear-gradient-4" x1="417.19" y1="447.06" x2="59.14" y2="89.02" gradientUnits="userSpaceOnUse">
      <stop offset="0" stop-color="#6dacc5"/>
      <stop offset=".07" stop-color="#5592b8"/>
      <stop offset=".15" stop-color="#417cae"/>
      <stop offset=".25" stop-color="#316ba6"/>
      <stop offset=".37" stop-color="#265fa1"/>
      <stop offset=".54" stop-color="#20589d"/>
      <stop offset="1" stop-color="#1f579d"/>
    </linearGradient>
  </defs>
  <path class="cls-5" d="M132.35,211.68l1.54,4.07,1.54,2.91,3.09,5.04,4.63,5.43,2.51,2.91,86.9,97.34,1.16,2.32,1.35.39,1.8-.96,88.01-97.17,1.17-3.29,1.37-5.22.39-2.9-.38-4.45-.77-3.29-.58-2.13-1.55-1.55-2.7-2.52-3.48-3.88-3.28-2.91-2.32-3.1-3.47-5.04-2.5-6.01-1.73-6.58-.37-6.39.21-6.77.59-5.61,1.37-6,1.95-5.61,3.11-4.83,3.88-6.38,3.69-4.25,6.79-6.76,4.85-3.09,3.68-2.12,2.71-.77,3.48-.38,2.71-.19,1.55,1.36.96,1.94-.21,6-2.33,4.45-1.95,6.19-2.14,5.8-2.33,5.8.36,12.39,1.15,3.68,2.31,4.26,2.7,3.49,4.06,3.11,3.67,1.94,2.71,1.75,10.26.21,2.71-.19,4.65-2.31,3.88-2.12,3.1-2.12,1.75-2.32,2.91-3.28,2.91-5.41,1.37-5.03,1.17-4.84.78-4.06,1.17-4.64,1.17-2.9,1.36-3.09,2.52-3.67,1.94-.58,3.48-.19,1.93.78,1.55,1.16,2.89,4.26,1.54,3.49,2.7,5.81,2.3,8.71.95,7.74-.02,8.13-.78,3.68-1.36,4.64-2.34,6.38-1.56,3.67-2.53,5.99-2.72,4.06-3.1,3.28-4.46,4.44-5.62,4.83-5.82,4.63-3.68,3.67-1.55,1.74-4.27,4.83-2.52,3.48-1.17,3.68-.59,2.9,1.66,131.81.58,2.71.58,1.74,2.31,6.2,2.5,7.36,2.11,8.13v6s-.03,6.19-.03,6.19l-1.56,4.25-1.94,4.06-3.69,5.41-4.46,4.25-6.01,4.05-4.26,1.93h-4.65s-6.97-.02-6.97-.02l-3.09-.97-4.25-2.33-3.09-2.91-2.9-2.13-2.51-4.07-2.12-3.49-1.73-5.04-.57-4.45.4-5.22.78-3.68.98-3.68,1.17-3.09.97-2.9.97-2.71.78-3.68.97-3.09,1.16-1.74v-1.16s0-1.74,0-1.74l.22-105.48v-3.29s-.77-1.16-.77-1.16l-1.16.97-60.14,68.97-.12,58.26v1.94s-1.36,1.55-1.36,1.55l-1.74.58-8.52.18-15.48.16-16.06-.23-22.45-.24-7.35-.02-1.35-2.52.12-58.84-3.86-4.07-7.72-8.34-11.01-12.02-13.33-14.35-20.47-20.36-9.27-10.47-2.12-2.93h-.97s-1.16,0-1.16,0v.99s0,1.55,0,1.55l10.34,149.05-1.17,3.09-1.94,3.48-2.72,2.9-2.13,2.32-3.49.96h-3.29s-2.52-.01-2.52-.01l-4.45-1.17-3.87-1.17-4.64-1.95-6.38-3.69-7.15-3.89-6.57-3.69-5.8-4.27-2.51-1.94-2.7-3.88-1.93-3.29-.96-3.29-.19-3.29-.37-7.55.02-7.74.4-4.06.79-5.8.79-5.61,1.38-12.38,1.18-8.51,1.38-11.8,1.37-8.51,1.77-13.74,1.58-15.48,3.36-32.12,1.78-17.8.81-17.42.8-11.61.24-24-.19-4.06-.96-4.26-1.15-3.29-1.93-4.26-2.51-2.52-2.32-1.75-3.09-1.36-3.87-.4h-4.06s-4.06.18-4.06.18l-2.52.19-4.84,1.34-4.07,1.73-3.1,2.32-4.46,2.51-2.72,2.9-3.3,2.9-1.75,1.74h-2.32s-1.94,0-1.94,0l-.77-1.16-1.16-1.94v-3.87s.79-3.48.79-3.48l2.72-7.35,3.5-7.15,5.83-9.47,6.4-8.31,5.43-5.99,5.62-4.44,5.62-4.63,5.04-3.28,8.14-3.66,5.62-1.34,9.68-.95,21.48.04,23.42.05,3.29.78,5.8,2.14,5.42,1.95,4.64,3.11,5.02,5.62,3.28,5.04,2.12,4.65,1.93,4.84.76,5.03v2.9s-1.56,2.71-1.56,2.71l-1.94,2.32-2.52.77h-3.68s-2.9.18-2.9.18l-2.51-.97h-2.71s-3.68-.01-3.68-.01h-3.1s-3.29-.01-3.29-.01l-2.9.77-3.49,1.54-2.91,1.93-2.71,2.32-2.13,2.9-1.75,3.87-1.5,4.45-1.23,4.26v6.19s-.03,6.77-.03,6.77v5.61s-.02,4.26-.02,4.26l1.22,2.21.9,4.18ZM259.14,389.42l.04-18.39v-1.74s-.96-.39-.96-.39l-4.27,4.44-3.67-5.43h-1.16s-8.93,11.21-8.93,11.21l-2.28,3.41-3.14-3.43-9.95-10.28h-1.06s-4.46,4.83-4.46,4.83l-1.35-1.55-2.51-3.3v1.55s-.04,18.97-.04,18.97l43.74.09Z"/>
  <polygon class="cls-2" points="199.87 411.17 271.49 410.35 273.23 411.32 273.22 414.8 273.18 435.71 272.2 441.51 270.06 447.9 268.11 452.34 264.62 456.4 259 460.45 255.32 462.96 252.22 464.7 247.96 466.04 243.31 467 237.11 466.99 229.95 466.97 224.96 465.8 218.93 463.66 214.09 460.75 210.81 457.84 208.11 455.12 204.82 450.86 202.51 446.21 200.58 442.33 199.82 437.3 199.06 433.04 199.1 412.52 199.87 411.17"/>
  <path class="cls-3" d="M232.91,65.37l2.92-7.54,1.75-1.93h1.16s1.74,1.75,1.74,1.75l1.16,2.91,32.3,104.78-.2,99.29-16.49,20.87.17-83.42h-2.32s-8.15,10.82-8.15,10.82l.79,86.32-10.81,13.33h-1.22s-1.74-2.33-1.74-2.33l-6.95-9.89-.21-87.1-8.69-11.05-1.64-.58-.17,84.58-15.73-19.77.21-101.23v-2.13s31.75-96.71,31.75-96.71l.39-.97ZM218.62,141.01l-7.4,23.79v1.55s0,2.32,0,2.32l1.35,1.94,9.45,16.08h2.32s0-3.48,0-3.48l.87-1.55,1.26-2.51,1.74-1.16,16.65.03,2.32,1.36,1.93,2.13.77,2.71.38,2.52h1.74s11.46-18.17,11.46-18.17v-3.87s-.96-1.74-.96-1.74l-16.16-45.71-1.35-2.71-16.65-.03-9.73,26.5Z"/>
  <polygon class="cls-4" points="406.1 268.35 409.8 257.73 413.11 251.16 416.61 243.42 421.66 234.92 425.93 227.38 429.42 223.9 430.58 222.93 431.66 358.81 430.49 360.93 429.33 361.9 425.07 361.89 414.81 361.87 404.36 361.85 402.82 360.88 403.95 282.11 404.35 274.95 406.1 268.35"/>
  <polygon class="cls-1" points="403.95 372.3 431.63 372.36 431.63 375.26 431.62 380.49 431.61 383 430.45 384.74 429.47 386.29 427.73 389.77 426.37 391.7 424.62 394.02 422.1 395.76 420.35 397.49 418.8 399.04 412.42 399.03 409.9 397.67 407.58 395.92 405.46 392.24 403.92 389.72 402.77 385.65 402.77 382.75 402.79 374.62 402.79 373.26 403.95 372.3"/>
  <path class="cls-6" d="M237.81,525.67c-7.74-.38-14.67-3.62-22.21-7.6-33.49-18.84-124.24-72.33-166.68-97.12-20.58-10.59-35.36-25.39-33.67-50.01-.61-44.05-.91-159.31-.53-203.36-1.85-44.7,43.59-52.55,76.57-76.28,38.6-22.89,79.43-47.81,117.96-70.25,27.03-15.82,35.41-12.74,68.02,6.34,20.5,11.93,41.89,24.46,63.09,36.84,27.21,15.87,62.97,36.73,86.77,50.79,22.15,11.77,34.73,24.93,33.67,50.01.7,42.01.67,149.65.69,197.08,1.47,24.65-6.37,42.02-28.07,53.25-28.13,17.32-86.55,51.83-129.9,77.86-32.52,18.95-50.56,32.11-63.94,32.46h-1.77Z"/>
</svg>